# xmcd
#
# Track frame offsets: 
#        150
#        9351
#        18520
#        30637
#        43156
#        55304
#        68723
#        80979
#        90665
#        103331
#        112513
#        125935
#        141435
#        153715
#        165979
#        180208
#        192614
#        205457
#        217653
#        229090
#        243846
#        258166
#        274297
#        286262
#        297197
#        309642
#        321472
#        332737
#        343846
#        355057
#        365661
#        377345
#
# Disc length: 5173 seconds
#
# Revision: 3
# Processed by: cddbd v1.5.2PL0 Copyright (c) Steve Scherf et al.
# Submitted via: ExactAudioCopy v1.3
#
DISCID=e6143320
DTITLE=Buck Owens and his Buckaroos - Tall Dark Stranger_CD3
DYEAR=2012
DGENRE=Country
TTITLE0=Let the World Keep On a Turnin'
TTITLE1=High as the Mountains
TTITLE2=Today I Started Loving You Again
TTITLE3=I've Never Had a Dream Come True Before
TTITLE4=Tennessee Bird Walk
TTITLE5=Then Maybe I Can Get Some Sleep
TTITLE6=Your Tender Loving Care
TTITLE7=Think of Me
TTITLE8=I Thank Him for Sending Me You
TTITLE9=I Don't Care (Just as Long as You Love Me)
TTITLE10=I Wouldn't Live in New York City (If They Gave Me the Whole D
TTITLE10=ang Town)
TTITLE11=No Milk and Honey in Baltimore
TTITLE12=Reno Lament
TTITLE13=Houston-Town
TTITLE14=Santo Domingo
TTITLE15=Down in New Orleans
TTITLE16=The Wind Blows Every Day in Chicago
TTITLE17=(It's a Long Way To) Londontown
TTITLE18=The Kansas City Song
TTITLE19=Big in Vegas
TTITLE20=Reno Lament
TTITLE21=No Milk and Honey in Baltimore
TTITLE22=Bridge Over Troubled Water
TTITLE23=I Am a Rock
TTITLE24=Homeward Bound
TTITLE25=The Devil Made Me Do That
TTITLE26=Everything Reminds Me You're Gone
TTITLE27=Catch the Wind
TTITLE28=San Francisco Town
TTITLE29=Within My Loving Arms
TTITLE30=(I'm Goin') Home
TTITLE31=Love Minus Zero-No Limit
EXTD=
EXTT0=
EXTT1=
EXTT2=
EXTT3=
EXTT4=
EXTT5=
EXTT6=
EXTT7=
EXTT8=
EXTT9=
EXTT10=
EXTT11=
EXTT12=
EXTT13=
EXTT14=
EXTT15=
EXTT16=
EXTT17=
EXTT18=
EXTT19=
EXTT20=
EXTT21=
EXTT22=
EXTT23=
EXTT24=
EXTT25=
EXTT26=
EXTT27=
EXTT28=
EXTT29=
EXTT30=
EXTT31=
PLAYORDER=
